# xmcd CD database file
#
# Track frame offsets:
#	150
#	14802
#	34122
#	47635
#	62152
#	79462
#	101607
#	118927
#	131827
#	151760
#	164700
#	181807
#	201630
#	222207
#
# Disc length: 3236 seconds
#
# Revision: 2
# Processed by: cddbd v1.5.2PL0 Copyright (c) Steve Scherf et al.
# Submitted via: CDex 1.51
#
DISCID=d30ca20e
DTITLE=The Jon Spencer Blues Explosion - Plastic Fang
DYEAR=2002
DGENRE=Rock
TTITLE0=Sweet And Sour
TTITLE1=She Said
TTITLE2=Monkey Rock 'N' Roll
TTITLE3=Ghetto Mom
TTITLE4=Alex
TTITLE5=Hold On
TTITLE6=Over And Over
TTITLE7=Then Again I Will
TTITLE8=Down In The Beast
TTITLE9=Shakin' Rock 'N' Roll Tonight
TTITLE10=The Midnight Creep
TTITLE11=Like A Bat
TTITLE12=Killer Wolf
TTITLE13=Mean Heart
EXTD=YEAR: 2002
EXTT0=
EXTT1=
EXTT2=
EXTT3=
EXTT4=
EXTT5=
EXTT6=
EXTT7=
EXTT8=
EXTT9=
EXTT10=
EXTT11=
EXTT12=
EXTT13=
PLAYORDER=
